# xmcd
#
# Track frame offsets:
#	150
#	18425
#	41719
#	61551
#	80364
#	98458
#	117432
#	133908
#	153186
#	173241
#	194713
#	213794
#	229299
#	245285
#	265240
#	282509
#	317701
#
# Disc length: 4458 seconds
#
# Revision: 3
# Processed by: cddbd v1.5.1PL2 Copyright (c) Steve Scherf et al.
# Submitted via: EasyCDDAExtractor 9.0.0.1
#
DISCID=e9116811
DTITLE=Валерий Леонтьев - Августин
DYEAR=2001
DGENRE=Pop
TTITLE0=Августин
TTITLE1=Безымянная планета
TTITLE2=Люблю ветер
TTITLE3=Пароход
TTITLE4=По дороге в святую обитель
TTITLE5=Если ты уйдёшь
TTITLE6=Секундомер
TTITLE7=Волчья страсть
TTITLE8=Я не плейбой
TTITLE9=Отраженья
TTITLE10=Загляните на Гаити
TTITLE11=Ураган "Сюзанна"
TTITLE12=Рыжий кот
TTITLE13=Время
TTITLE14=Банановая республика
TTITLE15=До свидания Килиманджаро
TTITLE16=Avgustin Video [CD-ROM)
EXTD=Russian artist YEAR: 2001
EXTT0=
EXTT1=
EXTT2=
EXTT3=
EXTT4=
EXTT5=
EXTT6=
EXTT7=
EXTT8=
EXTT9=
EXTT10=
EXTT11=
EXTT12=
EXTT13=
EXTT14=
EXTT15=
EXTT16=
PLAYORDER=
